<?xml version="1.0" standalone="no"?>
<!DOCTYPE svg PUBLIC "-//W3C//DTD SVG 20010904//EN"
 "http://www.w3.org/TR/2001/REC-SVG-20010904/DTD/svg10.dtd">
<svg version="1.0" xmlns="http://www.w3.org/2000/svg"
 width="300.000000pt" height="300.000000pt" viewBox="0 0 300.000000 300.000000"
 preserveAspectRatio="xMidYMid meet">
<metadata>
Created by potrace 1.16, written by Peter Selinger 2001-2019
</metadata>
<g transform="translate(0.000000,300.000000) scale(0.100000,-0.100000)"
fill="#000000" stroke="none">
<path d="M1240 2085 l0 -255 260 0 260 0 0 255 0 255 -260 0 -260 0 0 -255z"/>
<path d="M1830 2085 l0 -255 255 0 255 0 0 255 0 255 -255 0 -255 0 0 -255z"/>
<path d="M660 1500 l0 -260 255 0 255 0 0 260 0 260 -255 0 -255 0 0 -260z"/>
<path d="M1240 1500 l0 -260 258 2 257 3 3 258 2 257 -260 0 -260 0 0 -260z"/>
<path d="M1240 915 l0 -255 260 0 260 0 0 255 0 255 -260 0 -260 0 0 -255z"/>
</g>
</svg>
